<svg width="335" height="106" viewBox="0 0 335 106" fill="none" xmlns="http://www.w3.org/2000/svg">
<g clip-path="url(#clip0_73_17641)">
<path d="M287 0.124817L287 20.1248L-8.74228e-07 20.1248L0 0.124799L287 0.124817Z" fill="url(#paint0_linear_73_17641)"/>
<path d="M297.965 4.3L297.965 15.5L296.205 15.5L296.205 7.02L294.205 7.02L294.205 5.82C294.568 5.77733 294.877 5.71333 295.133 5.628C295.389 5.54267 295.608 5.436 295.789 5.308C295.981 5.16933 296.141 5.02 296.269 4.86C296.397 4.68933 296.509 4.50267 296.605 4.3L297.965 4.3ZM300.681 9.9C300.681 9.004 300.804 8.19867 301.049 7.484C301.305 6.76933 301.647 6.16667 302.073 5.676C302.511 5.17467 303.012 4.796 303.577 4.54C304.153 4.27333 304.761 4.14 305.401 4.14C306.041 4.14 306.644 4.27333 307.209 4.54C307.785 4.796 308.287 5.17467 308.713 5.676C309.151 6.16667 309.492 6.76933 309.737 7.484C309.993 8.19867 310.121 9.004 310.121 9.9C310.121 10.796 309.993 11.6013 309.737 12.316C309.492 13.0307 309.151 13.6387 308.713 14.14C308.287 14.6307 307.785 15.0093 307.209 15.276C306.644 15.532 306.041 15.66 305.401 15.66C304.761 15.66 304.153 15.532 303.577 15.276C303.012 15.0093 302.511 14.6307 302.073 14.14C301.647 13.6387 301.305 13.0307 301.049 12.316C300.804 11.6013 300.681 10.796 300.681 9.9ZM308.361 9.9C308.361 9.21733 308.276 8.62 308.105 8.108C307.945 7.58533 307.727 7.148 307.449 6.796C307.172 6.444 306.857 6.18267 306.505 6.012C306.153 5.83067 305.785 5.74 305.401 5.74C305.017 5.74 304.649 5.83067 304.297 6.012C303.945 6.18267 303.631 6.444 303.353 6.796C303.076 7.148 302.852 7.58533 302.681 8.108C302.521 8.62 302.441 9.21733 302.441 9.9C302.441 10.5827 302.521 11.1853 302.681 11.708C302.852 12.22 303.076 12.652 303.353 13.004C303.631 13.356 303.945 13.6227 304.297 13.804C304.649 13.9747 305.017 14.06 305.401 14.06C305.785 14.06 306.153 13.9747 306.505 13.804C306.857 13.6227 307.172 13.356 307.449 13.004C307.727 12.652 307.945 12.22 308.105 11.708C308.276 11.1853 308.361 10.5827 308.361 9.9ZM312.041 9.9C312.041 9.004 312.163 8.19867 312.409 7.484C312.665 6.76933 313.006 6.16667 313.433 5.676C313.87 5.17467 314.371 4.796 314.937 4.54C315.513 4.27333 316.121 4.14 316.761 4.14C317.401 4.14 318.003 4.27333 318.569 4.54C319.145 4.796 319.646 5.17467 320.073 5.676C320.51 6.16667 320.851 6.76933 321.097 7.484C321.353 8.19867 321.481 9.004 321.481 9.9C321.481 10.796 321.353 11.6013 321.097 12.316C320.851 13.0307 320.51 13.6387 320.073 14.14C319.646 14.6307 319.145 15.0093 318.569 15.276C318.003 15.532 317.401 15.66 316.761 15.66C316.121 15.66 315.513 15.532 314.937 15.276C314.371 15.0093 313.87 14.6307 313.433 14.14C313.006 13.6387 312.665 13.0307 312.409 12.316C312.163 11.6013 312.041 10.796 312.041 9.9ZM319.721 9.9C319.721 9.21733 319.635 8.62 319.465 8.108C319.305 7.58533 319.086 7.148 318.809 6.796C318.531 6.444 318.217 6.18267 317.865 6.012C317.513 5.83067 317.145 5.74 316.761 5.74C316.377 5.74 316.009 5.83067 315.657 6.012C315.305 6.18267 314.99 6.444 314.713 6.796C314.435 7.148 314.211 7.58533 314.041 8.108C313.881 8.62 313.801 9.21733 313.801 9.9C313.801 10.5827 313.881 11.1853 314.041 11.708C314.211 12.22 314.435 12.652 314.713 13.004C314.99 13.356 315.305 13.6227 315.657 13.804C316.009 13.9747 316.377 14.06 316.761 14.06C317.145 14.06 317.513 13.9747 317.865 13.804C318.217 13.6227 318.531 13.356 318.809 13.004C319.086 12.652 319.305 12.22 319.465 11.708C319.635 11.1853 319.721 10.5827 319.721 9.9ZM328.2 6.62C328.2 6.96133 328.131 7.28133 327.992 7.58C327.864 7.87867 327.683 8.14 327.448 8.364C327.224 8.588 326.957 8.76933 326.648 8.908C326.339 9.036 326.003 9.1 325.64 9.1C325.277 9.1 324.941 9.036 324.632 8.908C324.323 8.76933 324.051 8.588 323.816 8.364C323.592 8.14 323.411 7.87867 323.272 7.58C323.144 7.28133 323.08 6.96133 323.08 6.62C323.08 6.27867 323.144 5.95867 323.272 5.66C323.411 5.36133 323.592 5.1 323.816 4.876C324.051 4.652 324.323 4.476 324.632 4.348C324.941 4.20933 325.277 4.14 325.64 4.14C326.003 4.14 326.339 4.20933 326.648 4.348C326.957 4.476 327.224 4.652 327.448 4.876C327.683 5.1 327.864 5.36133 327.992 5.66C328.131 5.95867 328.2 6.27867 328.2 6.62ZM324.36 6.62C324.36 6.98267 324.483 7.28667 324.728 7.532C324.973 7.77733 325.277 7.9 325.64 7.9C326.003 7.9 326.307 7.77733 326.552 7.532C326.797 7.28667 326.92 6.98267 326.92 6.62C326.92 6.25733 326.797 5.95333 326.552 5.708C326.307 5.46267 326.003 5.34 325.64 5.34C325.277 5.34 324.973 5.46267 324.728 5.708C324.483 5.95333 324.36 6.25733 324.36 6.62ZM331.4 4.3L332.84 4.3L325.8 15.5L324.36 15.5L331.4 4.3ZM329 13.18C329 12.8387 329.064 12.5187 329.192 12.22C329.331 11.9213 329.512 11.66 329.736 11.436C329.971 11.212 330.243 11.036 330.552 10.908C330.861 10.7693 331.197 10.7 331.56 10.7C331.923 10.7 332.259 10.7693 332.568 10.908C332.877 11.036 333.144 11.212 333.368 11.436C333.603 11.66 333.784 11.9213 333.912 12.22C334.051 12.5187 334.12 12.8387 334.12 13.18C334.12 13.5213 334.051 13.8413 333.912 14.14C333.784 14.4387 333.603 14.7 333.368 14.924C333.144 15.148 332.877 15.3293 332.568 15.468C332.259 15.596 331.923 15.66 331.56 15.66C331.197 15.66 330.861 15.596 330.552 15.468C330.243 15.3293 329.971 15.148 329.736 14.924C329.512 14.7 329.331 14.4387 329.192 14.14C329.064 13.8413 329 13.5213 329 13.18ZM332.84 13.18C332.84 12.8173 332.717 12.5133 332.472 12.268C332.227 12.0227 331.923 11.9 331.56 11.9C331.197 11.9 330.893 12.0227 330.648 12.268C330.403 12.5133 330.28 12.8173 330.28 13.18C330.28 13.5427 330.403 13.8467 330.648 14.092C330.893 14.3373 331.197 14.46 331.56 14.46C331.923 14.46 332.227 14.3373 332.472 14.092C332.717 13.8467 332.84 13.5427 332.84 13.18Z" fill="#0B3B3C"/>
</g>
<path d="M0.99 32.3H4.4C4.78133 32.3 5.13333 32.366 5.456 32.498C5.786 32.63 6.06467 32.8097 6.292 33.037C6.52667 33.2643 6.71 33.532 6.842 33.84C6.974 34.148 7.04 34.478 7.04 34.83C7.04 35.248 6.96667 35.6 6.82 35.886C6.67333 36.172 6.51567 36.403 6.347 36.579C6.149 36.7917 5.92167 36.9603 5.665 37.085L7.315 40H5.555L4.07 37.305H2.64V40H0.99V32.3ZM5.39 34.83C5.39 34.522 5.291 34.2727 5.093 34.082C4.90233 33.884 4.653 33.785 4.345 33.785H2.64V35.82H4.345C4.653 35.82 4.90233 35.7247 5.093 35.534C5.291 35.3433 5.39 35.1087 5.39 34.83ZM16.2246 38.515V40H10.4496V32.3H16.1146V33.785H12.0996V35.325H15.2346V36.81H12.0996V38.515H16.2246ZM23.155 32.135C23.6903 32.135 24.156 32.2157 24.552 32.377C24.9553 32.5383 25.289 32.7143 25.553 32.905C25.861 33.1323 26.125 33.389 26.345 33.675L25.3 34.72C25.146 34.5147 24.9663 34.3313 24.761 34.17C24.5777 34.0307 24.354 33.906 24.09 33.796C23.826 33.6787 23.5143 33.62 23.155 33.62C22.7957 33.62 22.462 33.686 22.154 33.818C21.846 33.9427 21.5783 34.1187 21.351 34.346C21.1237 34.5733 20.944 34.841 20.812 35.149C20.6873 35.457 20.625 35.7907 20.625 36.15C20.625 36.5093 20.6873 36.843 20.812 37.151C20.944 37.459 21.1237 37.7267 21.351 37.954C21.5783 38.1813 21.846 38.361 22.154 38.493C22.462 38.6177 22.7957 38.68 23.155 38.68C23.529 38.68 23.8553 38.625 24.134 38.515C24.4127 38.3977 24.6473 38.2693 24.838 38.13C25.058 37.9687 25.2487 37.7853 25.41 37.58L26.4 38.625C26.1727 38.911 25.9013 39.1677 25.586 39.395C25.3147 39.5857 24.9737 39.7617 24.563 39.923C24.1597 40.0843 23.6903 40.165 23.155 40.165C22.561 40.165 22.0073 40.0587 21.494 39.846C20.988 39.6333 20.548 39.3473 20.174 38.988C19.8 38.6213 19.5067 38.196 19.294 37.712C19.0813 37.2207 18.975 36.7 18.975 36.15C18.975 35.6 19.0813 35.083 19.294 34.599C19.5067 34.1077 19.8 33.6823 20.174 33.323C20.548 32.9563 20.988 32.6667 21.494 32.454C22.0073 32.2413 22.561 32.135 23.155 32.135ZM29.3687 40V32.3H31.0187V38.515H34.5937V40H29.3687ZM40.532 34.225L39.597 36.755H41.467L40.532 34.225ZM39.047 38.185L38.387 40H36.627L39.652 32.3H41.412L44.437 40H42.677L42.017 38.185H39.047ZM53.9791 32.3H55.4421V40H53.7921V34.863L51.3171 38.02L48.8421 34.885V40H47.1921V32.3H48.6771L51.3171 35.655L53.9791 32.3ZM62.0937 34.225L61.1587 36.755H63.0287L62.0937 34.225ZM60.6087 38.185L59.9487 40H58.1887L61.2137 32.3H62.9737L65.9987 40H64.2387L63.5787 38.185H60.6087ZM72.0534 32.135C72.5888 32.135 73.0544 32.2157 73.4504 32.377C73.8538 32.5383 74.1874 32.7143 74.4514 32.905C74.7594 33.1323 75.0234 33.389 75.2434 33.675L74.1984 34.72C74.0444 34.5147 73.8648 34.3313 73.6594 34.17C73.4761 34.0307 73.2524 33.906 72.9884 33.796C72.7244 33.6787 72.4128 33.62 72.0534 33.62C71.6941 33.62 71.3604 33.686 71.0524 33.818C70.7444 33.9427 70.4768 34.1187 70.2494 34.346C70.0221 34.5733 69.8424 34.841 69.7104 35.149C69.5858 35.457 69.5234 35.787 69.5234 36.139C69.5234 36.4983 69.5858 36.832 69.7104 37.14C69.8424 37.448 70.0221 37.7157 70.2494 37.943C70.4768 38.1703 70.7444 38.35 71.0524 38.482C71.3604 38.6067 71.6941 38.669 72.0534 38.669C72.4274 38.669 72.7538 38.614 73.0324 38.504C73.3111 38.3867 73.5458 38.2583 73.7364 38.119C73.9564 37.9577 74.1471 37.7743 74.3084 37.569L75.2984 38.614C75.0784 38.8853 74.8218 39.131 74.5284 39.351C74.2718 39.549 73.9528 39.7287 73.5714 39.89C73.1974 40.044 72.7574 40.132 72.2514 40.154L72.0534 40.55C72.2368 40.5573 72.4018 40.5977 72.5484 40.671C72.6731 40.7297 72.7868 40.8213 72.8894 40.946C72.9921 41.0707 73.0434 41.2503 73.0434 41.485C73.0434 41.793 72.9371 42.0423 72.7244 42.233C72.5191 42.431 72.2221 42.53 71.8334 42.53C71.6428 42.53 71.4704 42.5043 71.3164 42.453C71.1698 42.4017 71.0451 42.3467 70.9424 42.288C70.8178 42.2147 70.7114 42.1303 70.6234 42.035L70.9534 41.43C71.0194 41.4887 71.0928 41.5363 71.1734 41.573C71.2394 41.6097 71.3201 41.639 71.4154 41.661C71.5108 41.6903 71.6134 41.705 71.7234 41.705C71.9801 41.705 72.1084 41.6097 72.1084 41.419C72.1084 41.2357 71.9801 41.144 71.7234 41.144C71.6794 41.144 71.6391 41.1477 71.6024 41.155C71.5731 41.1623 71.5474 41.1697 71.5254 41.177C71.4961 41.1843 71.4704 41.1917 71.4484 41.199L71.1734 40.869L71.5034 40.132C70.9828 40.066 70.4988 39.9193 70.0514 39.692C69.6114 39.4573 69.2301 39.164 68.9074 38.812C68.5848 38.4527 68.3318 38.0457 68.1484 37.591C67.9651 37.1363 67.8734 36.656 67.8734 36.15C67.8734 35.6 67.9798 35.083 68.1924 34.599C68.4051 34.1077 68.6984 33.6823 69.0724 33.323C69.4464 32.9563 69.8864 32.6667 70.3924 32.454C70.9058 32.2413 71.4594 32.135 72.0534 32.135ZM79.3173 36.15C79.3173 36.5093 79.3796 36.843 79.5043 37.151C79.6363 37.459 79.8123 37.7267 80.0323 37.954C80.2596 38.1813 80.5236 38.361 80.8243 38.493C81.125 38.6177 81.4476 38.68 81.7923 38.68C82.137 38.68 82.4596 38.6177 82.7603 38.493C83.061 38.361 83.3213 38.1813 83.5413 37.954C83.7686 37.7267 83.9446 37.459 84.0693 37.151C84.2013 36.843 84.2673 36.5093 84.2673 36.15C84.2673 35.7907 84.2013 35.457 84.0693 35.149C83.9446 34.841 83.7686 34.5733 83.5413 34.346C83.3213 34.1187 83.061 33.9427 82.7603 33.818C82.4596 33.686 82.137 33.62 81.7923 33.62C81.4476 33.62 81.125 33.686 80.8243 33.818C80.5236 33.9427 80.2596 34.1187 80.0323 34.346C79.8123 34.5733 79.6363 34.841 79.5043 35.149C79.3796 35.457 79.3173 35.7907 79.3173 36.15ZM77.6123 36.15C77.6123 35.6 77.7186 35.083 77.9313 34.599C78.144 34.1077 78.4373 33.6823 78.8113 33.323C79.1853 32.9563 79.6253 32.6667 80.1313 32.454C80.6446 32.2413 81.1983 32.135 81.7923 32.135C82.3863 32.135 82.9363 32.2413 83.4423 32.454C83.9556 32.6667 84.3993 32.9563 84.7733 33.323C85.1473 33.6823 85.4406 34.1077 85.6533 34.599C85.866 35.083 85.9723 35.6 85.9723 36.15C85.9723 36.7 85.866 37.2207 85.6533 37.712C85.4406 38.196 85.1473 38.6213 84.7733 38.988C84.3993 39.3473 83.9556 39.6333 83.4423 39.846C82.9363 40.0587 82.3863 40.165 81.7923 40.165C81.1983 40.165 80.6446 40.0587 80.1313 39.846C79.6253 39.6333 79.1853 39.3473 78.8113 38.988C78.4373 38.6213 78.144 38.196 77.9313 37.712C77.7186 37.2207 77.6123 36.7 77.6123 36.15ZM82.6173 31.42C82.4266 31.42 82.2653 31.3907 82.1333 31.332C82.0086 31.2733 81.895 31.211 81.7923 31.145C81.697 31.079 81.6016 31.0167 81.5063 30.958C81.4183 30.8993 81.312 30.87 81.1873 30.87C81.0773 30.87 80.9856 30.914 80.9123 31.002C80.839 31.09 80.8023 31.2293 80.8023 31.42H79.8673C79.8673 30.8407 79.9773 30.4227 80.1973 30.166C80.4173 29.902 80.6996 29.77 81.0443 29.77C81.2276 29.77 81.3853 29.803 81.5173 29.869C81.6493 29.9277 81.763 29.9973 81.8583 30.078C81.961 30.1513 82.0563 30.221 82.1443 30.287C82.2396 30.3457 82.3423 30.375 82.4523 30.375C82.5623 30.375 82.654 30.331 82.7273 30.243C82.8006 30.1477 82.8373 29.99 82.8373 29.77H83.7723C83.7723 30.3493 83.6623 30.771 83.4423 31.035C83.2223 31.2917 82.9473 31.42 82.6173 31.42ZM94.9412 38.515V40H89.1662V32.3H94.8312V33.785H90.8162V35.325H93.9512V36.81H90.8162V38.515H94.9412ZM101.487 37.745C101.487 37.5103 101.391 37.327 101.201 37.195C101.017 37.063 100.783 36.9493 100.497 36.854C100.218 36.7587 99.9136 36.6633 99.5836 36.568C99.2609 36.4653 98.9566 36.3297 98.6706 36.161C98.3919 35.9923 98.1573 35.7723 97.9666 35.501C97.7833 35.2223 97.6916 34.852 97.6916 34.39C97.6916 34.0893 97.7539 33.8033 97.8786 33.532C98.0033 33.2533 98.1829 33.0113 98.4176 32.806C98.6523 32.6007 98.9346 32.4393 99.2646 32.322C99.6019 32.1973 99.9759 32.135 100.387 32.135C100.812 32.135 101.182 32.19 101.498 32.3C101.813 32.41 102.077 32.531 102.29 32.663C102.532 32.817 102.741 32.9893 102.917 33.18L101.927 34.225C101.809 34.1003 101.681 33.9903 101.542 33.895C101.417 33.8143 101.267 33.741 101.091 33.675C100.915 33.6017 100.717 33.565 100.497 33.565C100.167 33.565 99.9099 33.6493 99.7266 33.818C99.5433 33.9793 99.4516 34.17 99.4516 34.39C99.4516 34.632 99.5433 34.819 99.7266 34.951C99.9173 35.0757 100.152 35.1857 100.431 35.281C100.717 35.3763 101.021 35.4753 101.344 35.578C101.674 35.6733 101.978 35.8053 102.257 35.974C102.543 36.1427 102.777 36.3663 102.961 36.645C103.151 36.9237 103.247 37.2903 103.247 37.745C103.247 38.0897 103.181 38.4087 103.049 38.702C102.924 38.9953 102.737 39.252 102.488 39.472C102.238 39.6847 101.934 39.8533 101.575 39.978C101.215 40.1027 100.801 40.165 100.332 40.165C99.8476 40.165 99.4223 40.1027 99.0556 39.978C98.6963 39.846 98.3956 39.6993 98.1536 39.538C97.8676 39.3473 97.6219 39.1347 97.4166 38.9L98.4066 37.91C98.5386 38.064 98.6963 38.2033 98.8796 38.328C99.0336 38.4307 99.2206 38.526 99.4406 38.614C99.6679 38.6947 99.9283 38.735 100.222 38.735C100.64 38.735 100.955 38.6397 101.168 38.449C101.38 38.2583 101.487 38.0237 101.487 37.745ZM110.283 32.3H113.693C114.075 32.3 114.427 32.366 114.749 32.498C115.079 32.63 115.358 32.8097 115.585 33.037C115.82 33.2643 116.003 33.532 116.135 33.84C116.267 34.148 116.333 34.478 116.333 34.83C116.333 35.248 116.26 35.6 116.113 35.886C115.967 36.172 115.809 36.403 115.64 36.579C115.442 36.7917 115.215 36.9603 114.958 37.085L116.608 40H114.848L113.363 37.305H111.933V40H110.283V32.3ZM114.683 34.83C114.683 34.522 114.584 34.2727 114.386 34.082C114.196 33.884 113.946 33.785 113.638 33.785H111.933V35.82H113.638C113.946 35.82 114.196 35.7247 114.386 35.534C114.584 35.3433 114.683 35.1087 114.683 34.83ZM125.518 38.515V40H119.743V32.3H125.408V33.785H121.393V35.325H124.528V36.81H121.393V38.515H125.518ZM132.063 37.745C132.063 37.5103 131.968 37.327 131.777 37.195C131.594 37.063 131.359 36.9493 131.073 36.854C130.794 36.7587 130.49 36.6633 130.16 36.568C129.837 36.4653 129.533 36.3297 129.247 36.161C128.968 35.9923 128.734 35.7723 128.543 35.501C128.36 35.2223 128.268 34.852 128.268 34.39C128.268 34.0893 128.33 33.8033 128.455 33.532C128.58 33.2533 128.759 33.0113 128.994 32.806C129.229 32.6007 129.511 32.4393 129.841 32.322C130.178 32.1973 130.552 32.135 130.963 32.135C131.388 32.135 131.759 32.19 132.074 32.3C132.389 32.41 132.653 32.531 132.866 32.663C133.108 32.817 133.317 32.9893 133.493 33.18L132.503 34.225C132.386 34.1003 132.257 33.9903 132.118 33.895C131.993 33.8143 131.843 33.741 131.667 33.675C131.491 33.6017 131.293 33.565 131.073 33.565C130.743 33.565 130.486 33.6493 130.303 33.818C130.12 33.9793 130.028 34.17 130.028 34.39C130.028 34.632 130.12 34.819 130.303 34.951C130.494 35.0757 130.728 35.1857 131.007 35.281C131.293 35.3763 131.597 35.4753 131.92 35.578C132.25 35.6733 132.554 35.8053 132.833 35.974C133.119 36.1427 133.354 36.3663 133.537 36.645C133.728 36.9237 133.823 37.2903 133.823 37.745C133.823 38.0897 133.757 38.4087 133.625 38.702C133.5 38.9953 133.313 39.252 133.064 39.472C132.815 39.6847 132.51 39.8533 132.151 39.978C131.792 40.1027 131.377 40.165 130.908 40.165C130.424 40.165 129.999 40.1027 129.632 39.978C129.273 39.846 128.972 39.6993 128.73 39.538C128.444 39.3473 128.198 39.1347 127.993 38.9L128.983 37.91C129.115 38.064 129.273 38.2033 129.456 38.328C129.61 38.4307 129.797 38.526 130.017 38.614C130.244 38.6947 130.505 38.735 130.798 38.735C131.216 38.735 131.531 38.6397 131.744 38.449C131.957 38.2583 132.063 38.0237 132.063 37.745ZM140.199 32.3C140.595 32.3 140.962 32.366 141.299 32.498C141.636 32.63 141.926 32.8133 142.168 33.048C142.417 33.2827 142.608 33.5577 142.74 33.873C142.879 34.1883 142.949 34.5257 142.949 34.885C142.949 35.2517 142.879 35.5927 142.74 35.908C142.608 36.2233 142.417 36.4983 142.168 36.733C141.926 36.9603 141.636 37.14 141.299 37.272C140.962 37.404 140.595 37.47 140.199 37.47H138.604V40H136.954V32.3H140.199ZM138.604 33.785V35.985H140.144C140.305 35.985 140.456 35.9557 140.595 35.897C140.742 35.8383 140.866 35.7613 140.969 35.666C141.072 35.5633 141.152 35.446 141.211 35.314C141.27 35.182 141.299 35.039 141.299 34.885C141.299 34.731 141.27 34.588 141.211 34.456C141.152 34.324 141.072 34.2103 140.969 34.115C140.866 34.0123 140.742 33.9317 140.595 33.873C140.456 33.8143 140.305 33.785 140.144 33.785H138.604ZM147.345 36.15C147.345 36.5093 147.408 36.843 147.532 37.151C147.664 37.459 147.84 37.7267 148.06 37.954C148.288 38.1813 148.552 38.361 148.852 38.493C149.153 38.6177 149.476 38.68 149.82 38.68C150.165 38.68 150.488 38.6177 150.788 38.493C151.089 38.361 151.349 38.1813 151.569 37.954C151.797 37.7267 151.973 37.459 152.097 37.151C152.229 36.843 152.295 36.5093 152.295 36.15C152.295 35.7907 152.229 35.457 152.097 35.149C151.973 34.841 151.797 34.5733 151.569 34.346C151.349 34.1187 151.089 33.9427 150.788 33.818C150.488 33.686 150.165 33.62 149.82 33.62C149.476 33.62 149.153 33.686 148.852 33.818C148.552 33.9427 148.288 34.1187 148.06 34.346C147.84 34.5733 147.664 34.841 147.532 35.149C147.408 35.457 147.345 35.7907 147.345 36.15ZM145.64 36.15C145.64 35.6 145.747 35.083 145.959 34.599C146.172 34.1077 146.465 33.6823 146.839 33.323C147.213 32.9563 147.653 32.6667 148.159 32.454C148.673 32.2413 149.226 32.135 149.82 32.135C150.414 32.135 150.964 32.2413 151.47 32.454C151.984 32.6667 152.427 32.9563 152.801 33.323C153.175 33.6823 153.469 34.1077 153.681 34.599C153.894 35.083 154 35.6 154 36.15C154 36.7 153.894 37.2207 153.681 37.712C153.469 38.196 153.175 38.6213 152.801 38.988C152.427 39.3473 151.984 39.6333 151.47 39.846C150.964 40.0587 150.414 40.165 149.82 40.165C149.226 40.165 148.673 40.0587 148.159 39.846C147.653 39.6333 147.213 39.3473 146.839 38.988C146.465 38.6213 146.172 38.196 145.959 37.712C145.747 37.2207 145.64 36.7 145.64 36.15ZM164.069 32.3V40H162.639L158.844 35.105V40H157.194V32.3H158.624L162.419 37.195V32.3H164.069ZM170.556 32.3C171.121 32.3 171.645 32.4027 172.129 32.608C172.613 32.806 173.031 33.0773 173.383 33.422C173.735 33.7667 174.01 34.1737 174.208 34.643C174.413 35.1123 174.516 35.6147 174.516 36.15C174.516 36.6853 174.413 37.1877 174.208 37.657C174.01 38.1263 173.735 38.5333 173.383 38.878C173.031 39.2227 172.613 39.4977 172.129 39.703C171.645 39.901 171.121 40 170.556 40H167.696V32.3H170.556ZM169.346 33.785V38.515H170.556C170.871 38.515 171.168 38.4563 171.447 38.339C171.733 38.2143 171.979 38.0457 172.184 37.833C172.397 37.613 172.562 37.36 172.679 37.074C172.804 36.788 172.866 36.48 172.866 36.15C172.866 35.82 172.807 35.512 172.69 35.226C172.573 34.94 172.411 34.6907 172.206 34.478C172.001 34.258 171.755 34.0893 171.469 33.972C171.19 33.8473 170.886 33.785 170.556 33.785H169.346ZM177.703 32.3H179.353V40H177.703V32.3ZM185.844 32.3C186.409 32.3 186.933 32.4027 187.417 32.608C187.901 32.806 188.319 33.0773 188.671 33.422C189.023 33.7667 189.298 34.1737 189.496 34.643C189.701 35.1123 189.804 35.6147 189.804 36.15C189.804 36.6853 189.701 37.1877 189.496 37.657C189.298 38.1263 189.023 38.5333 188.671 38.878C188.319 39.2227 187.901 39.4977 187.417 39.703C186.933 39.901 186.409 40 185.844 40H182.984V32.3H185.844ZM184.634 33.785V38.515H185.844C186.159 38.515 186.456 38.4563 186.735 38.339C187.021 38.2143 187.267 38.0457 187.472 37.833C187.685 37.613 187.85 37.36 187.967 37.074C188.092 36.788 188.154 36.48 188.154 36.15C188.154 35.82 188.095 35.512 187.978 35.226C187.861 34.94 187.699 34.6907 187.494 34.478C187.289 34.258 187.043 34.0893 186.757 33.972C186.478 33.8473 186.174 33.785 185.844 33.785H184.634ZM195.576 34.225L194.641 36.755H196.511L195.576 34.225ZM194.091 38.185L193.431 40H191.671L194.696 32.3H196.456L199.481 40H197.721L197.061 38.185H194.091ZM205.591 37.745C205.591 37.5103 205.496 37.327 205.305 37.195C205.122 37.063 204.887 36.9493 204.601 36.854C204.323 36.7587 204.018 36.6633 203.688 36.568C203.366 36.4653 203.061 36.3297 202.775 36.161C202.497 35.9923 202.262 35.7723 202.071 35.501C201.888 35.2223 201.796 34.852 201.796 34.39C201.796 34.0893 201.859 33.8033 201.983 33.532C202.108 33.2533 202.288 33.0113 202.522 32.806C202.757 32.6007 203.039 32.4393 203.369 32.322C203.707 32.1973 204.081 32.135 204.491 32.135C204.917 32.135 205.287 32.19 205.602 32.3C205.918 32.41 206.182 32.531 206.394 32.663C206.636 32.817 206.845 32.9893 207.021 33.18L206.031 34.225C205.914 34.1003 205.786 33.9903 205.646 33.895C205.522 33.8143 205.371 33.741 205.195 33.675C205.019 33.6017 204.821 33.565 204.601 33.565C204.271 33.565 204.015 33.6493 203.831 33.818C203.648 33.9793 203.556 34.17 203.556 34.39C203.556 34.632 203.648 34.819 203.831 34.951C204.022 35.0757 204.257 35.1857 204.535 35.281C204.821 35.3763 205.126 35.4753 205.448 35.578C205.778 35.6733 206.083 35.8053 206.361 35.974C206.647 36.1427 206.882 36.3663 207.065 36.645C207.256 36.9237 207.351 37.2903 207.351 37.745C207.351 38.0897 207.285 38.4087 207.153 38.702C207.029 38.9953 206.842 39.252 206.592 39.472C206.343 39.6847 206.039 39.8533 205.679 39.978C205.32 40.1027 204.906 40.165 204.436 40.165C203.952 40.165 203.527 40.1027 203.16 39.978C202.801 39.846 202.5 39.6993 202.258 39.538C201.972 39.3473 201.727 39.1347 201.521 38.9L202.511 37.91C202.643 38.064 202.801 38.2033 202.984 38.328C203.138 38.4307 203.325 38.526 203.545 38.614C203.773 38.6947 204.033 38.735 204.326 38.735C204.744 38.735 205.06 38.6397 205.272 38.449C205.485 38.2583 205.591 38.0237 205.591 37.745Z" fill="#0B3B3C"/>
<g clip-path="url(#clip1_73_17641)">
<path d="M286.5 63L286.5 83L277.5 83L277.5 63L286.5 63Z" fill="#F3F1EE"/>
<path d="M278 63L278 83L-8.74228e-07 83L0 63L278 63Z" fill="url(#paint1_linear_73_17641)"/>
<path d="M298.205 74.82C297.725 74.82 297.261 74.7187 296.813 74.516C296.376 74.3133 295.986 74.036 295.645 73.684C295.304 73.332 295.032 72.9267 294.829 72.468C294.626 71.9987 294.525 71.5027 294.525 70.98C294.525 70.4573 294.626 69.9667 294.829 69.508C295.042 69.0387 295.325 68.628 295.677 68.276C296.04 67.924 296.461 67.6467 296.941 67.444C297.432 67.2413 297.96 67.14 298.525 67.14C299.08 67.14 299.602 67.2413 300.093 67.444C300.584 67.6467 301.005 67.924 301.357 68.276C301.72 68.628 302.002 69.0387 302.205 69.508C302.418 69.9667 302.525 70.4573 302.525 70.98C302.525 71.3427 302.477 71.6787 302.381 71.988C302.296 72.2973 302.194 72.5693 302.077 72.804C301.949 73.0813 301.805 73.3267 301.645 73.54L298.445 78.5L296.685 78.5L299.165 74.66C299.09 74.692 299 74.7187 298.893 74.74C298.701 74.7933 298.472 74.82 298.205 74.82ZM296.125 70.98C296.125 71.3 296.184 71.604 296.301 71.892C296.429 72.1693 296.6 72.4147 296.813 72.628C297.026 72.8307 297.277 72.996 297.565 73.124C297.864 73.2413 298.184 73.3 298.525 73.3C298.866 73.3 299.181 73.2413 299.469 73.124C299.768 72.996 300.024 72.8307 300.237 72.628C300.45 72.4147 300.616 72.1693 300.733 71.892C300.861 71.604 300.925 71.3 300.925 70.98C300.925 70.66 300.861 70.3613 300.733 70.084C300.616 69.796 300.45 69.5507 300.237 69.348C300.024 69.1347 299.768 68.9693 299.469 68.852C299.181 68.724 298.866 68.66 298.525 68.66C298.184 68.66 297.864 68.724 297.565 68.852C297.277 68.9693 297.026 69.1347 296.813 69.348C296.6 69.5507 296.429 69.796 296.301 70.084C296.184 70.3613 296.125 70.66 296.125 70.98ZM310.938 67.3L310.938 68.74L306.218 78.5L304.458 78.5L309.098 68.9L303.498 68.9L303.498 67.3L310.938 67.3ZM317.184 69.62C317.184 69.9613 317.115 70.2813 316.976 70.58C316.848 70.8787 316.667 71.14 316.432 71.364C316.208 71.588 315.942 71.7693 315.632 71.908C315.323 72.036 314.987 72.1 314.624 72.1C314.262 72.1 313.926 72.036 313.616 71.908C313.307 71.7693 313.035 71.588 312.8 71.364C312.576 71.14 312.395 70.8787 312.256 70.58C312.128 70.2813 312.064 69.9613 312.064 69.62C312.064 69.2787 312.128 68.9587 312.256 68.66C312.395 68.3613 312.576 68.1 312.8 67.876C313.035 67.652 313.307 67.476 313.616 67.348C313.926 67.2093 314.262 67.14 314.624 67.14C314.987 67.14 315.323 67.2093 315.632 67.348C315.942 67.476 316.208 67.652 316.432 67.876C316.667 68.1 316.848 68.3613 316.976 68.66C317.115 68.9587 317.184 69.2787 317.184 69.62ZM313.344 69.62C313.344 69.9827 313.467 70.2867 313.712 70.532C313.958 70.7773 314.262 70.9 314.624 70.9C314.987 70.9 315.291 70.7773 315.536 70.532C315.782 70.2867 315.904 69.9827 315.904 69.62C315.904 69.2573 315.782 68.9533 315.536 68.708C315.291 68.4627 314.987 68.34 314.624 68.34C314.262 68.34 313.958 68.4627 313.712 68.708C313.467 68.9533 313.344 69.2573 313.344 69.62ZM320.384 67.3L321.824 67.3L314.784 78.5L313.344 78.5L320.384 67.3ZM317.984 76.18C317.984 75.8387 318.048 75.5187 318.176 75.22C318.315 74.9213 318.496 74.66 318.72 74.436C318.955 74.212 319.227 74.036 319.536 73.908C319.846 73.7693 320.182 73.7 320.544 73.7C320.907 73.7 321.243 73.7693 321.552 73.908C321.862 74.036 322.128 74.212 322.352 74.436C322.587 74.66 322.768 74.9213 322.896 75.22C323.035 75.5187 323.104 75.8387 323.104 76.18C323.104 76.5213 323.035 76.8413 322.896 77.14C322.768 77.4387 322.587 77.7 322.352 77.924C322.128 78.148 321.862 78.3293 321.552 78.468C321.243 78.596 320.907 78.66 320.544 78.66C320.182 78.66 319.846 78.596 319.536 78.468C319.227 78.3293 318.955 78.148 318.72 77.924C318.496 77.7 318.315 77.4387 318.176 77.14C318.048 76.8413 317.984 76.5213 317.984 76.18ZM321.824 76.18C321.824 75.8173 321.702 75.5133 321.456 75.268C321.211 75.0227 320.907 74.9 320.544 74.9C320.182 74.9 319.878 75.0227 319.632 75.268C319.387 75.5133 319.264 75.8173 319.264 76.18C319.264 76.5427 319.387 76.8467 319.632 77.092C319.878 77.3373 320.182 77.46 320.544 77.46C320.907 77.46 321.211 77.3373 321.456 77.092C321.702 76.8467 321.824 76.5427 321.824 76.18Z" fill="#0B3B3C"/>
</g>
<path d="M0.99 95.3H2.64V103H0.99V95.3ZM2.09 92.715H3.63L2.42 94.365H1.21L2.09 92.715ZM13.1459 95.3V103H11.7159L7.92086 98.105V103H6.27086V95.3H7.70086L11.4959 100.195V95.3H13.1459ZM19.6324 95.3C20.1971 95.3 20.7214 95.4027 21.2054 95.608C21.6894 95.806 22.1074 96.0773 22.4594 96.422C22.8114 96.7667 23.0864 97.1737 23.2844 97.643C23.4898 98.1123 23.5924 98.6147 23.5924 99.15C23.5924 99.6853 23.4898 100.188 23.2844 100.657C23.0864 101.126 22.8114 101.533 22.4594 101.878C22.1074 102.223 21.6894 102.498 21.2054 102.703C20.7214 102.901 20.1971 103 19.6324 103H16.7724V95.3H19.6324ZM18.4224 96.785V101.515H19.6324C19.9478 101.515 20.2448 101.456 20.5234 101.339C20.8094 101.214 21.0551 101.046 21.2604 100.833C21.4731 100.613 21.6381 100.36 21.7554 100.074C21.8801 99.788 21.9424 99.48 21.9424 99.15C21.9424 98.82 21.8838 98.512 21.7664 98.226C21.6491 97.94 21.4878 97.6907 21.2824 97.478C21.0771 97.258 20.8314 97.0893 20.5454 96.972C20.2668 96.8473 19.9624 96.785 19.6324 96.785H18.4224ZM26.7798 95.3H28.4298V103H26.7798V95.3ZM35.8007 95.135C36.336 95.135 36.8017 95.2157 37.1977 95.377C37.601 95.5383 37.9347 95.7143 38.1987 95.905C38.5067 96.1323 38.7707 96.389 38.9907 96.675L37.9457 97.72C37.7917 97.5147 37.612 97.3313 37.4067 97.17C37.2234 97.0307 36.9997 96.906 36.7357 96.796C36.4717 96.6787 36.16 96.62 35.8007 96.62C35.4414 96.62 35.1077 96.686 34.7997 96.818C34.4917 96.9427 34.224 97.1187 33.9967 97.346C33.7694 97.5733 33.5897 97.841 33.4577 98.149C33.333 98.457 33.2707 98.7907 33.2707 99.15C33.2707 99.5093 33.333 99.843 33.4577 100.151C33.5897 100.459 33.7694 100.727 33.9967 100.954C34.224 101.181 34.4917 101.361 34.7997 101.493C35.1077 101.618 35.4414 101.68 35.8007 101.68C36.1747 101.68 36.501 101.625 36.7797 101.515C37.0584 101.398 37.293 101.269 37.4837 101.13C37.7037 100.969 37.8944 100.785 38.0557 100.58L39.0457 101.625C38.8184 101.911 38.547 102.168 38.2317 102.395C37.9604 102.586 37.6194 102.762 37.2087 102.923C36.8054 103.084 36.336 103.165 35.8007 103.165C35.2067 103.165 34.653 103.059 34.1397 102.846C33.6337 102.633 33.1937 102.347 32.8197 101.988C32.4457 101.621 32.1524 101.196 31.9397 100.712C31.727 100.221 31.6207 99.7 31.6207 99.15C31.6207 98.6 31.727 98.083 31.9397 97.599C32.1524 97.1077 32.4457 96.6823 32.8197 96.323C33.1937 95.9563 33.6337 95.6667 34.1397 95.454C34.653 95.2413 35.2067 95.135 35.8007 95.135ZM47.7894 101.515V103H42.0144V95.3H47.6794V96.785H43.6644V98.325H46.7994V99.81H43.6644V101.515H47.7894ZM57.7457 95.3C58.3104 95.3 58.8347 95.4027 59.3187 95.608C59.8027 95.806 60.2207 96.0773 60.5727 96.422C60.9247 96.7667 61.1997 97.1737 61.3977 97.643C61.603 98.1123 61.7057 98.6147 61.7057 99.15C61.7057 99.6853 61.603 100.188 61.3977 100.657C61.1997 101.126 60.9247 101.533 60.5727 101.878C60.2207 102.223 59.8027 102.498 59.3187 102.703C58.8347 102.901 58.3104 103 57.7457 103H54.8857V95.3H57.7457ZM56.5357 96.785V101.515H57.7457C58.061 101.515 58.358 101.456 58.6367 101.339C58.9227 101.214 59.1684 101.046 59.3737 100.833C59.5864 100.613 59.7514 100.36 59.8687 100.074C59.9934 99.788 60.0557 99.48 60.0557 99.15C60.0557 98.82 59.997 98.512 59.8797 98.226C59.7624 97.94 59.601 97.6907 59.3957 97.478C59.1904 97.258 58.9447 97.0893 58.6587 96.972C58.38 96.8473 58.0757 96.785 57.7457 96.785H56.5357ZM70.6681 101.515V103H64.8931V95.3H70.5581V96.785H66.5431V98.325H69.6781V99.81H66.5431V101.515H70.6681ZM81.1194 100.745C81.1194 100.51 81.0241 100.327 80.8334 100.195C80.6501 100.063 80.4154 99.9493 80.1294 99.854C79.8507 99.7587 79.5464 99.6633 79.2164 99.568C78.8937 99.4653 78.5894 99.3297 78.3034 99.161C78.0247 98.9923 77.7901 98.7723 77.5994 98.501C77.4161 98.2223 77.3244 97.852 77.3244 97.39C77.3244 97.0893 77.3867 96.8033 77.5114 96.532C77.6361 96.2533 77.8157 96.0113 78.0504 95.806C78.2851 95.6007 78.5674 95.4393 78.8974 95.322C79.2347 95.1973 79.6087 95.135 80.0194 95.135C80.4447 95.135 80.8151 95.19 81.1304 95.3C81.4457 95.41 81.7097 95.531 81.9224 95.663C82.1644 95.817 82.3734 95.9893 82.5494 96.18L81.5594 97.225C81.4421 97.1003 81.3137 96.9903 81.1744 96.895C81.0497 96.8143 80.8994 96.741 80.7234 96.675C80.5474 96.6017 80.3494 96.565 80.1294 96.565C79.7994 96.565 79.5427 96.6493 79.3594 96.818C79.1761 96.9793 79.0844 97.17 79.0844 97.39C79.0844 97.632 79.1761 97.819 79.3594 97.951C79.5501 98.0757 79.7847 98.1857 80.0634 98.281C80.3494 98.3763 80.6537 98.4753 80.9764 98.578C81.3064 98.6733 81.6107 98.8053 81.8894 98.974C82.1754 99.1427 82.4101 99.3663 82.5934 99.645C82.7841 99.9237 82.8794 100.29 82.8794 100.745C82.8794 101.09 82.8134 101.409 82.6814 101.702C82.5567 101.995 82.3697 102.252 82.1204 102.472C81.8711 102.685 81.5667 102.853 81.2074 102.978C80.8481 103.103 80.4337 103.165 79.9644 103.165C79.4804 103.165 79.0551 103.103 78.6884 102.978C78.3291 102.846 78.0284 102.699 77.7864 102.538C77.5004 102.347 77.2547 102.135 77.0494 101.9L78.0394 100.91C78.1714 101.064 78.3291 101.203 78.5124 101.328C78.6664 101.431 78.8534 101.526 79.0734 101.614C79.3007 101.695 79.5611 101.735 79.8544 101.735C80.2724 101.735 80.5877 101.64 80.8004 101.449C81.0131 101.258 81.1194 101.024 81.1194 100.745ZM87.2751 99.15C87.2751 99.5093 87.3375 99.843 87.4621 100.151C87.5941 100.459 87.7701 100.727 87.9901 100.954C88.2175 101.181 88.4815 101.361 88.7821 101.493C89.0828 101.618 89.4055 101.68 89.7501 101.68C90.0948 101.68 90.4175 101.618 90.7181 101.493C91.0188 101.361 91.2791 101.181 91.4991 100.954C91.7265 100.727 91.9025 100.459 92.0271 100.151C92.1591 99.843 92.2251 99.5093 92.2251 99.15C92.2251 98.7907 92.1591 98.457 92.0271 98.149C91.9025 97.841 91.7265 97.5733 91.4991 97.346C91.2791 97.1187 91.0188 96.9427 90.7181 96.818C90.4175 96.686 90.0948 96.62 89.7501 96.62C89.4055 96.62 89.0828 96.686 88.7821 96.818C88.4815 96.9427 88.2175 97.1187 87.9901 97.346C87.7701 97.5733 87.5941 97.841 87.4621 98.149C87.3375 98.457 87.2751 98.7907 87.2751 99.15ZM85.5701 99.15C85.5701 98.6 85.6765 98.083 85.8891 97.599C86.1018 97.1077 86.3951 96.6823 86.7691 96.323C87.1431 95.9563 87.5831 95.6667 88.0891 95.454C88.6025 95.2413 89.1561 95.135 89.7501 95.135C90.3441 95.135 90.8941 95.2413 91.4001 95.454C91.9135 95.6667 92.3571 95.9563 92.7311 96.323C93.1051 96.6823 93.3985 97.1077 93.6111 97.599C93.8238 98.083 93.9301 98.6 93.9301 99.15C93.9301 99.7 93.8238 100.221 93.6111 100.712C93.3985 101.196 93.1051 101.621 92.7311 101.988C92.3571 102.347 91.9135 102.633 91.4001 102.846C90.8941 103.059 90.3441 103.165 89.7501 103.165C89.1561 103.165 88.6025 103.059 88.0891 102.846C87.5831 102.633 87.1431 102.347 86.7691 101.988C86.3951 101.621 86.1018 101.196 85.8891 100.712C85.6765 100.221 85.5701 99.7 85.5701 99.15ZM97.124 103V95.3H98.774V101.515H102.349V103H97.124ZM108.122 101.68C108.356 101.68 108.576 101.636 108.782 101.548C108.987 101.453 109.167 101.324 109.321 101.163C109.475 101.002 109.596 100.811 109.684 100.591C109.779 100.371 109.827 100.129 109.827 99.865V95.3H111.477V99.865C111.477 100.334 111.393 100.771 111.224 101.174C111.055 101.57 110.821 101.918 110.52 102.219C110.219 102.512 109.863 102.743 109.453 102.912C109.049 103.081 108.606 103.165 108.122 103.165C107.638 103.165 107.19 103.081 106.78 102.912C106.376 102.743 106.024 102.512 105.724 102.219C105.423 101.918 105.188 101.57 105.02 101.174C104.851 100.771 104.767 100.334 104.767 99.865V95.3H106.417V99.865C106.417 100.129 106.461 100.371 106.549 100.591C106.644 100.811 106.769 101.002 106.923 101.163C107.077 101.324 107.256 101.453 107.462 101.548C107.667 101.636 107.887 101.68 108.122 101.68ZM118.795 95.135C119.33 95.135 119.796 95.2157 120.192 95.377C120.595 95.5383 120.929 95.7143 121.193 95.905C121.501 96.1323 121.765 96.389 121.985 96.675L120.94 97.72C120.786 97.5147 120.606 97.3313 120.401 97.17C120.218 97.0307 119.994 96.906 119.73 96.796C119.466 96.6787 119.154 96.62 118.795 96.62C118.436 96.62 118.102 96.686 117.794 96.818C117.486 96.9427 117.218 97.1187 116.991 97.346C116.764 97.5733 116.584 97.841 116.452 98.149C116.327 98.457 116.265 98.787 116.265 99.139C116.265 99.4983 116.327 99.832 116.452 100.14C116.584 100.448 116.764 100.716 116.991 100.943C117.218 101.17 117.486 101.35 117.794 101.482C118.102 101.607 118.436 101.669 118.795 101.669C119.169 101.669 119.495 101.614 119.774 101.504C120.053 101.387 120.287 101.258 120.478 101.119C120.698 100.958 120.889 100.774 121.05 100.569L122.04 101.614C121.82 101.885 121.563 102.131 121.27 102.351C121.013 102.549 120.694 102.729 120.313 102.89C119.939 103.044 119.499 103.132 118.993 103.154L118.795 103.55C118.978 103.557 119.143 103.598 119.29 103.671C119.415 103.73 119.528 103.821 119.631 103.946C119.734 104.071 119.785 104.25 119.785 104.485C119.785 104.793 119.679 105.042 119.466 105.233C119.261 105.431 118.964 105.53 118.575 105.53C118.384 105.53 118.212 105.504 118.058 105.453C117.911 105.402 117.787 105.347 117.684 105.288C117.559 105.215 117.453 105.13 117.365 105.035L117.695 104.43C117.761 104.489 117.834 104.536 117.915 104.573C117.981 104.61 118.062 104.639 118.157 104.661C118.252 104.69 118.355 104.705 118.465 104.705C118.722 104.705 118.85 104.61 118.85 104.419C118.85 104.236 118.722 104.144 118.465 104.144C118.421 104.144 118.381 104.148 118.344 104.155C118.315 104.162 118.289 104.17 118.267 104.177C118.238 104.184 118.212 104.192 118.19 104.199L117.915 103.869L118.245 103.132C117.724 103.066 117.24 102.919 116.793 102.692C116.353 102.457 115.972 102.164 115.649 101.812C115.326 101.453 115.073 101.046 114.89 100.591C114.707 100.136 114.615 99.656 114.615 99.15C114.615 98.6 114.721 98.083 114.934 97.599C115.147 97.1077 115.44 96.6823 115.814 96.323C116.188 95.9563 116.628 95.6667 117.134 95.454C117.647 95.2413 118.201 95.135 118.795 95.135ZM128.034 97.225L127.099 99.755H128.969L128.034 97.225ZM126.549 101.185L125.889 103H124.129L127.154 95.3H128.914L131.939 103H130.179L129.519 101.185H126.549ZM128.804 94.42C128.613 94.42 128.452 94.3907 128.32 94.332C128.195 94.2733 128.081 94.211 127.979 94.145C127.883 94.079 127.788 94.0167 127.693 93.958C127.605 93.8993 127.498 93.87 127.374 93.87C127.264 93.87 127.172 93.914 127.099 94.002C127.025 94.09 126.989 94.2293 126.989 94.42H126.054C126.054 93.8407 126.164 93.4227 126.384 93.166C126.604 92.902 126.886 92.77 127.231 92.77C127.414 92.77 127.572 92.803 127.704 92.869C127.836 92.9277 127.949 92.9973 128.045 93.078C128.147 93.1513 128.243 93.221 128.331 93.287C128.426 93.3457 128.529 93.375 128.639 93.375C128.749 93.375 128.84 93.331 128.914 93.243C128.987 93.1477 129.024 92.99 129.024 92.77H129.959C129.959 93.3493 129.849 93.771 129.629 94.035C129.409 94.2917 129.134 94.42 128.804 94.42ZM135.518 99.15C135.518 99.5093 135.581 99.843 135.705 100.151C135.837 100.459 136.013 100.727 136.233 100.954C136.461 101.181 136.725 101.361 137.025 101.493C137.326 101.618 137.649 101.68 137.993 101.68C138.338 101.68 138.661 101.618 138.961 101.493C139.262 101.361 139.522 101.181 139.742 100.954C139.97 100.727 140.146 100.459 140.27 100.151C140.402 99.843 140.468 99.5093 140.468 99.15C140.468 98.7907 140.402 98.457 140.27 98.149C140.146 97.841 139.97 97.5733 139.742 97.346C139.522 97.1187 139.262 96.9427 138.961 96.818C138.661 96.686 138.338 96.62 137.993 96.62C137.649 96.62 137.326 96.686 137.025 96.818C136.725 96.9427 136.461 97.1187 136.233 97.346C136.013 97.5733 135.837 97.841 135.705 98.149C135.581 98.457 135.518 98.7907 135.518 99.15ZM133.813 99.15C133.813 98.6 133.92 98.083 134.132 97.599C134.345 97.1077 134.638 96.6823 135.012 96.323C135.386 95.9563 135.826 95.6667 136.332 95.454C136.846 95.2413 137.399 95.135 137.993 95.135C138.587 95.135 139.137 95.2413 139.643 95.454C140.157 95.6667 140.6 95.9563 140.974 96.323C141.348 96.6823 141.642 97.1077 141.854 97.599C142.067 98.083 142.173 98.6 142.173 99.15C142.173 99.7 142.067 100.221 141.854 100.712C141.642 101.196 141.348 101.621 140.974 101.988C140.6 102.347 140.157 102.633 139.643 102.846C139.137 103.059 138.587 103.165 137.993 103.165C137.399 103.165 136.846 103.059 136.332 102.846C135.826 102.633 135.386 102.347 135.012 101.988C134.638 101.621 134.345 101.196 134.132 100.712C133.92 100.221 133.813 99.7 133.813 99.15Z" fill="#0B3B3C"/>
<defs>
<linearGradient id="paint0_linear_73_17641" x1="67.9165" y1="10.1248" x2="280.218" y2="10.1248" gradientUnits="userSpaceOnUse">
<stop stop-color="#0B3B3C"/>
<stop offset="1" stop-color="#A2E7B5"/>
</linearGradient>
<linearGradient id="paint1_linear_73_17641" x1="65.7867" y1="73" x2="271.431" y2="73" gradientUnits="userSpaceOnUse">
<stop stop-color="#0B3B3C"/>
<stop offset="1" stop-color="#A2E7B5"/>
</linearGradient>
<clipPath id="clip0_73_17641">
<rect width="20" height="335" fill="white" transform="translate(335) rotate(90)"/>
</clipPath>
<clipPath id="clip1_73_17641">
<rect width="20" height="335" fill="white" transform="translate(335 63) rotate(90)"/>
</clipPath>
</defs>
</svg>
